<?xml version="1.0" encoding="UTF-8" standalone="no"?>
<!-- Created with Inkscape (http://www.inkscape.org/) -->

<svg
   width="1920"
   height="1080"
   viewBox="0 0 508 285.74999"
   version="1.1"
   id="svg5"
   inkscape:version="1.2.2 (b0a8486541, 2022-12-01)"
   sodipodi:docname="drawing.svg"
   inkscape:export-filename="drawing.png"
   inkscape:export-xdpi="96"
   inkscape:export-ydpi="96"
   xmlns:inkscape="http://www.inkscape.org/namespaces/inkscape"
   xmlns:sodipodi="http://sodipodi.sourceforge.net/DTD/sodipodi-0.dtd"
   xmlns="http://www.w3.org/2000/svg"
   xmlns:svg="http://www.w3.org/2000/svg">
  <sodipodi:namedview
     id="namedview7"
     pagecolor="#ffffff"
     bordercolor="#000000"
     borderopacity="0.25"
     inkscape:showpageshadow="2"
     inkscape:pageopacity="0.0"
     inkscape:pagecheckerboard="0"
     inkscape:deskcolor="#d1d1d1"
     inkscape:document-units="mm"
     showgrid="false"
     inkscape:zoom="0.5"
     inkscape:cx="1159"
     inkscape:cy="711"
     inkscape:window-width="1855"
     inkscape:window-height="1056"
     inkscape:window-x="0"
     inkscape:window-y="0"
     inkscape:window-maximized="1"
     inkscape:current-layer="layer1" />
  <defs
     id="defs2" />
  <g
     inkscape:label="Layer 1"
     inkscape:groupmode="layer"
     id="layer1">
    <rect
       style="fill:#ffffff;stroke:none;stroke-width:1;stroke-linecap:round;stroke-linejoin:round;stroke-dasharray:none;fill-opacity:1"
       id="rect1025"
       width="508"
       height="285.75"
       x="0"
       y="0"
       rx="0.26458332"
       ry="0.26458332" />
    <path
       style="fill:none;stroke:#000000;stroke-width:1;stroke-linecap:round;stroke-linejoin:round;stroke-dasharray:none"
       d="M 67.215212,251.17552 C 52.131576,237.45788 35.50165,231.70786 34.087357,194.79977 32.673064,157.89168 52.517907,147.56802 56.934598,114.54735 61.351289,81.526676 31.559361,68.983846 35.393459,45.414046 39.227558,21.844246 73.44531,0.17803432 138.20402,20.988005 c 64.75871,20.809971 50.20399,21.003989 108.58574,25.673283 58.38175,4.669294 132.30299,-42.1069941 188.40354,-23.501997 56.10054,18.604998 -2.89759,63.019059 25.37846,92.632149 28.27606,29.61308 23.68986,82.75383 -10.46237,112.99035 -34.15223,30.23653 -61.56948,28.21886 -98.23171,30.12209 -36.66223,1.90324 -146.35517,-14.51148 -176.73113,-15.92058 -30.37595,-1.4091 -92.847701,21.90986 -107.931338,8.19222 z"
       id="path236"
       sodipodi:nodetypes="zzzzzzzzzzzz" />
  </g>
</svg>
